<?xml version="1.0" encoding="UTF-8"?>
<svg width="70px" height="70px" viewBox="0 0 70 70" version="1.1" xmlns="http://www.w3.org/2000/svg" xmlns:xlink="http://www.w3.org/1999/xlink">
    <title>返回icon</title>
    <g id="观吸空间" stroke="none" stroke-width="1" fill="none" fill-rule="evenodd">
        <g id="课程详情1" transform="translate(-40.000000, -118.000000)" fill-rule="nonzero">
            <g id="返回icon" transform="translate(75.000000, 153.000000) rotate(-180.000000) translate(-75.000000, -153.000000) translate(40.000000, 118.000000)">
                <rect id="矩形备份-2" fill-opacity="0.301409528" fill="#000000" x="-5.79726492e-14" y="0" width="70" height="70" rx="35"></rect>
                <path d="M42.25782,35.8593825 C42.58594,35.4947958 42.75,35.0755225 42.75,34.6015625 C42.75,34.1276025 42.58594,33.7083292 42.25782,33.3437425 L31.75782,22.8437505 C31.3932333,22.5156252 30.97396,22.3515625 30.5,22.3515625 C30.0260413,22.3515625 29.6067707,22.5156252 29.242188,22.8437505 C28.9140627,23.2083332 28.75,23.6276038 28.75,24.1015625 C28.75,24.5755225 28.9140627,24.9947958 29.242188,25.3593825 L38.53906,34.6015625 L29.242188,43.8437625 C28.9140627,44.2082958 28.75,44.6275625 28.75,45.1015625 C28.75,45.5755625 28.9140627,45.9948292 29.242188,46.3593625 C29.6067707,46.6874958 30.0260413,46.8515625 30.5,46.8515625 C30.97396,46.8515625 31.3932333,46.6874958 31.75782,46.3593625 L42.25782,35.8593825 Z" id="路径" fill="#FFFFFF"></path>
            </g>
        </g>
    </g>
</svg>