<?xml version="1.0" encoding="UTF-8"?>
<svg width="62px" height="44px" viewBox="0 0 62 44" version="1.1" xmlns="http://www.w3.org/2000/svg" xmlns:xlink="http://www.w3.org/1999/xlink">
    <title>左切换</title>
    <g id="app" stroke="none" stroke-width="1" fill="none" fill-rule="evenodd">
        <g id="收听页面" transform="translate(-189.000000, -1494.000000)" fill="#FFFFFF">
            <g id="左切换" transform="translate(219.800000, 1515.741176) rotate(-180.000000) translate(-219.800000, -1515.741176) translate(189.000000, 1494.000000)">
                <path d="M18.4791403,7.5362115 L36.5440278,35.4546739 C37.1440866,36.3820375 36.8787536,37.620258 35.95139,38.2203168 C35.6277167,38.4297524 35.25041,38.5411765 34.8648874,38.5411765 L-1.26488744,38.5411765 C-2.36945694,38.5411765 -3.26488744,37.645746 -3.26488744,36.5411765 C-3.26488744,36.1556539 -3.15346341,35.7783472 -2.94402776,35.4546739 L15.1208597,7.5362115 C15.7209185,6.60884791 16.959139,6.34351495 17.8865026,6.94357374 C18.1236875,7.09704636 18.3256677,7.29902654 18.4791403,7.5362115 Z" id="三角形备份" transform="translate(16.800000, 21.741176) rotate(-270.000000) translate(-16.800000, -21.741176) "></path>
                <path d="M46.4791403,7.5362115 L64.5440278,35.4546739 C65.1440866,36.3820375 64.8787536,37.620258 63.95139,38.2203168 C63.6277167,38.4297524 63.25041,38.5411765 62.8648874,38.5411765 L26.7351126,38.5411765 C25.6305431,38.5411765 24.7351126,37.645746 24.7351126,36.5411765 C24.7351126,36.1556539 24.8465366,35.7783472 25.0559722,35.4546739 L43.1208597,7.5362115 C43.7209185,6.60884791 44.959139,6.34351495 45.8865026,6.94357374 C46.1236875,7.09704636 46.3256677,7.29902654 46.4791403,7.5362115 Z" id="三角形备份-2" transform="translate(44.800000, 21.741176) rotate(-270.000000) translate(-44.800000, -21.741176) "></path>
            </g>
        </g>
    </g>
</svg>